<svg xmlns="http://www.w3.org/2000/svg" viewBox="0 0 48 48" width="48px" height="48px">
    <path
            d="M15 10A7 7 0 1015 24 7 7 0 1015 10zM34.5 4c-5.164 0-9.366 4.262-9.366 9.5 0 1.315.29 2.598.957 4.175l-1.868 3.04c-.285.463-.297 1.043-.032 1.518C24.456 22.706 24.957 23 25.5 23h9c4.605 0 9.5-3.329 9.5-9.5C44 7.995 40.005 4 34.5 4zM34.5 9c.828 0 1.5.672 1.5 1.5S35.328 12 34.5 12 33 11.328 33 10.5 33.672 9 34.5 9zM33 20v-4.5c0-.828.672-1.5 1.5-1.5s1.5.672 1.5 1.5v4.323C35.504 19.936 35 20 34.5 20H33zM22.265 26H7.735C5.676 26 4 27.676 4 29.735V33c0 6.065 4.935 11 11 11s11-4.935 11-11v-3.265C26 27.676 24.324 26 22.265 26z" fill="#1E1F21"/>
</svg>