<svg xmlns="http://www.w3.org/2000/svg" viewBox="0 0 48 48" width="48px" height="48px">
    <path
            d="M 36 5 C 34.13 5 32.371781 5.7287812 31.050781 7.0507812 L 24.111328 13.990234 L 23.121094 13 L 21.560547 14.560547 C 21.267547 14.853547 20.884 15 20.5 15 C 20.116 15 19.732453 14.853547 19.439453 14.560547 C 18.853453 13.974547 18.853453 13.025453 19.439453 12.439453 L 21 10.878906 L 19.121094 9 L 17.560547 10.560547 C 17.268547 10.853547 16.884 11 16.5 11 C 16.116 11 15.732453 10.853547 15.439453 10.560547 C 14.853453 9.9745469 14.853453 9.0254531 15.439453 8.4394531 L 17 6.8789062 L 16.146484 6.0253906 C 14.824484 4.7033906 12.517266 4.7043906 11.197266 6.0253906 L 6.0253906 11.195312 C 5.3633906 11.856312 5 12.735875 5 13.671875 C 5 14.606875 5.3643906 15.484484 6.0253906 16.146484 L 13.990234 24.111328 L 8.9140625 29.185547 C 8.4960625 29.605547 8.1883906 30.128266 8.0253906 30.697266 L 5.0566406 41.087891 C 4.9076406 41.611891 5.0534531 42.175547 5.4394531 42.560547 C 5.7254531 42.845547 6.107 43 6.5 43 C 6.638 43 6.7761094 42.980406 6.9121094 42.941406 L 17.302734 39.974609 C 17.875734 39.810609 18.398453 39.500031 18.814453 39.082031 L 23.888672 34.009766 L 32.025391 42.146484 C 32.708391 42.829484 33.603 43.169922 34.5 43.169922 C 35.397 43.169922 36.291609 42.828484 36.974609 42.146484 L 42.146484 36.974609 C 43.510484 35.610609 43.510484 33.389391 42.146484 32.025391 L 41.121094 31 L 39.560547 32.560547 C 39.268547 32.853547 38.884 33 38.5 33 C 38.116 33 37.732453 32.853547 37.439453 32.560547 C 36.853453 31.974547 36.853453 31.025453 37.439453 30.439453 L 39 28.878906 L 37.121094 27 L 35.560547 28.560547 C 35.268547 28.853547 34.884 29 34.5 29 C 34.116 29 33.732453 28.853547 33.439453 28.560547 C 32.853453 27.974547 32.853453 27.025453 33.439453 26.439453 L 35 24.878906 L 34.009766 23.888672 L 40.949219 16.949219 C 42.271219 15.628219 43 13.87 43 12 C 43 10.13 42.270219 8.3717812 40.949219 7.0507812 C 39.627219 5.7287813 37.87 5 36 5 z M 36 8 C 37.068 8 38.073125 8.415875 38.828125 9.171875 C 39.584125 9.927875 40 10.932 40 12 C 40 13.068 39.584125 14.072125 38.828125 14.828125 L 36.888672 16.767578 L 31.232422 11.111328 L 33.173828 9.171875 C 33.927828 8.415875 34.932 8 36 8 z M 29.111328 13.232422 L 34.767578 18.888672 L 16.691406 36.964844 C 16.631406 37.024844 16.557562 37.066844 16.476562 37.089844 L 8.6835938 39.316406 L 10.910156 31.523438 C 10.933156 31.439437 10.977109 31.365687 11.037109 31.304688 L 29.111328 13.232422 z" fill="#1E1F21"/>
</svg>