<svg xmlns="http://www.w3.org/2000/svg" viewBox="0 0 48 48" width="48px" height="48px">
    <path
            d="M17.026 46L17.026 46c-3.866 0-7-3.134-7-7l0 0c0-3.866 3.134-7 7-7h5c1.105 0 2 .895 2 2v5C24.026 42.866 20.892 46 17.026 46zM32.5 17A6.5 6.5 0 1032.5 30 6.5 6.5 0 1032.5 17zM33.5 15c3.656 0 6.607-3.019 6.497-6.7C39.89 4.743 36.787 2 33.227 2L28 2c-1.105 0-2 .895-2 2v9c0 1.105.895 2 2 2H33.5zM16.5 2c-3.656 0-6.607 3.019-6.497 6.7.107 3.557 3.21 6.3 6.77 6.3L22 15c1.105 0 2-.895 2-2V4c0-1.105-.895-2-2-2H16.5zM16.5 17c-3.656 0-6.607 3.019-6.497 6.7.107 3.557 3.21 6.3 6.77 6.3L22 30c1.105 0 2-.895 2-2v-9c0-1.105-.895-2-2-2H16.5z" fill="#F6F6F6"/>
</svg>