<svg xmlns="http://www.w3.org/2000/svg" viewBox="0 0 48 48" width="48px" height="48px">
    <path
            d="M 10.5 6 C 7.651875 6 5.3109058 8.1637817 5.0292969 10.9375 C 5.0291636 10.938788 5.0294292 10.940118 5.0292969 10.941406 C 5.0107789 11.125077 5 11.31144 5 11.5 L 5 13 L 5 37.5 C 5 40.519774 7.4802259 43 10.5 43 L 37.5 43 C 40.519774 43 43 40.519774 43 37.5 L 43 11.5 C 43 11.309943 42.989868 11.122799 42.970703 10.9375 C 42.707738 8.3474156 40.649204 6.290485 38.058594 6.0292969 C 37.874547 6.0103939 37.688736 6 37.5 6 L 10.5 6 z M 8 13 L 40 13 L 40 37.5 C 40 38.898226 38.898226 40 37.5 40 L 10.5 40 C 9.1017741 40 8 38.898226 8 37.5 L 8 13 z M 13.5 17 A 1.50015 1.50015 0 0 0 12 18.5 L 12 23.5 A 1.50015 1.50015 0 0 0 13.5 25 L 20.5 25 A 1.50015 1.50015 0 0 0 22 23.5 L 22 18.5 A 1.50015 1.50015 0 0 0 20.5 17 L 13.5 17 z M 28.5 17 A 1.50015 1.50015 0 1 0 28.5 20 L 34.5 20 A 1.50015 1.50015 0 1 0 34.5 17 L 28.5 17 z M 30.5 22 A 1.50015 1.50015 0 1 0 30.5 25 L 34.5 25 A 1.50015 1.50015 0 1 0 34.5 22 L 30.5 22 z M 13.5 28 A 1.50015 1.50015 0 1 0 13.5 31 L 19.5 31 A 1.50015 1.50015 0 1 0 19.5 28 L 13.5 28 z M 26.5 28 A 1.50015 1.50015 0 0 0 25 29.5 L 25 34.5 A 1.50015 1.50015 0 0 0 26.5 36 L 34.5 36 A 1.50015 1.50015 0 0 0 36 34.5 L 36 29.5 A 1.50015 1.50015 0 0 0 34.5 28 L 26.5 28 z M 15.5 33 A 1.50015 1.50015 0 1 0 15.5 36 L 19.5 36 A 1.50015 1.50015 0 1 0 19.5 33 L 15.5 33 z" fill="#1E1F21"/>
</svg>