<svg xmlns="http://www.w3.org/2000/svg" viewBox="0 0 48 48" width="48px" height="48px">
    <path fill="#007BFF"
            d="M 21.199219 4 C 18.883219 4 17 5.8832188 17 8.1992188 L 17 13.800781 C 17 16.116781 18.883219 18 21.199219 18 L 22.5 18 L 22.5 23 L 15 23 C 12.532499 23 10.5 25.032499 10.5 27.5 L 10.5 30 L 9.1992188 30 C 6.8832188 30 5 31.883219 5 34.199219 L 5 39.800781 C 5 42.116781 6.8832188 44 9.1992188 44 L 14.800781 44 C 17.116781 44 19 42.116781 19 39.800781 L 19 34.199219 C 19 31.883219 17.116781 30 14.800781 30 L 13.5 30 L 13.5 27.5 C 13.5 26.653501 14.153501 26 15 26 L 33 26 C 33.846499 26 34.5 26.653501 34.5 27.5 L 34.5 30 L 33.199219 30 C 30.883219 30 29 31.883219 29 34.199219 L 29 39.800781 C 29 42.116781 30.883219 44 33.199219 44 L 38.800781 44 C 41.116781 44 43 42.116781 43 39.800781 L 43 34.199219 C 43 31.883219 41.116781 30 38.800781 30 L 37.5 30 L 37.5 27.5 C 37.5 25.032499 35.467501 23 33 23 L 25.5 23 L 25.5 18 L 26.800781 18 C 29.116781 18 31 16.116781 31 13.800781 L 31 8.1992188 C 31 5.8832188 29.116781 4 26.800781 4 L 21.199219 4 z"/>
</svg>