<svg xmlns="http://www.w3.org/2000/svg" viewBox="0 0 48 48" width="48px" height="48px">
    <path
            d="M 24 4 C 18.486 4 14 8.486 14 14 C 14 19.514 18.486 24 24 24 C 29.514 24 34 19.514 34 14 C 34 8.486 29.514 4 24 4 z M 30.496094 25 C 29.026094 25 27.645422 25.572328 26.607422 26.611328 C 24.462422 28.755328 24.462422 32.243672 26.607422 34.388672 L 28.607422 36.388672 C 29.645422 37.427672 31.026094 38 32.496094 38 C 33.966094 38 35.348719 37.427672 36.386719 36.388672 C 38.531719 34.244672 38.531719 30.756328 36.386719 28.611328 L 34.386719 26.611328 C 33.348719 25.572328 31.965094 25 30.496094 25 z M 12.5 28 C 10.019 28 8 30.019 8 32.5 L 8 33.699219 C 8 39.475219 15.028 44 24 44 C 28.438 44 32.395578 42.890266 35.267578 41.072266 L 33.890625 39.867188 C 33.435625 39.952188 32.969094 40 32.496094 40 C 30.491094 40 28.609359 39.219734 27.193359 37.802734 L 25.193359 35.802734 C 23.085359 33.695734 22.505547 30.639 23.435547 28 L 12.5 28 z M 39.099609 36.050781 C 38.761609 36.680781 38.330781 37.273688 37.800781 37.804688 C 37.277781 38.327688 36.690641 38.763469 36.056641 39.105469 L 43.513672 45.630859 C 43.796672 45.877859 44.148 46 44.5 46 C 44.885 46 45.268547 45.852547 45.560547 45.560547 C 46.118547 45.001547 46.147906 44.105719 45.628906 43.511719 L 39.099609 36.050781 z" fill="#FF8C00"/>
</svg>