<svg xmlns="http://www.w3.org/2000/svg" viewBox="0 0 48 48" width="48px" height="48px">
    <path
            d="M42.5,8H41V6.5C41,5.671,40.328,5,39.5,5H30c-2.455,0-4.631,1.191-6,3.019C22.631,6.191,20.455,5,18,5H8.5	C7.672,5,7,5.671,7,6.5V8H5.5C4.672,8,4,8.672,4,9.5v31C4,41.328,4.672,42,5.5,42h37c0.828,0,1.5-0.672,1.5-1.5v-31	C44,8.672,43.328,8,42.5,8z M10,8h8c2.481,0,4.5,2.019,4.5,4.5v22c0,0.829,0.672,1.5,1.5,1.5s1.5-0.671,1.5-1.5v-22	c0-2.481,2.019-4.5,4.5-4.5h8v28h-8c-2.426,0-4.616,1.176-6,3.032C22.616,37.176,20.426,36,18,36h-8V8z"
            fill="#1E1F21"/>
</svg>