<svg xmlns="http://www.w3.org/2000/svg" viewBox="0 0 48 48" width="48px" height="48px">
    <path
            d="M44.343,25.404l-4.513-5.641C38.737,10.175,30.934,3,21.498,3c-10.201,0-18.5,8.523-18.5,19	c0,5.271,2.168,10.351,5.949,13.936c1.322,1.255,2.051,2.864,2.051,4.532V43.5c0,0.828,0.672,1.5,1.5,1.5h17	c0.828,0,1.5-0.672,1.5-1.5v-0.559c0-0.216,0.138-0.406,0.342-0.475l5.58-1.86c1.841-0.613,3.078-2.328,3.078-4.269v-5.174	l2.992-1.047c0.918-0.322,1.626-1.072,1.895-2.007S44.95,26.164,44.343,25.404z M22.5,34c-0.828,0-1.5-0.672-1.5-1.5	s0.672-1.5,1.5-1.5s1.5,0.672,1.5,1.5S23.328,34,22.5,34z M28.842,21.273c-0.43,1.708-1.736,3.229-3.495,4.067	C24.528,25.73,24,26.648,24,27.681V28.5c0,0.828-0.672,1.5-1.5,1.5S21,29.328,21,28.5v-0.819c0-2.183,1.199-4.165,3.057-5.049	c0.945-0.451,1.665-1.252,1.875-2.09c0.182-0.721-0.003-1.462-0.547-2.204c-0.624-0.851-1.56-1.371-2.43-1.338	C21.216,17.024,20,18.464,20,20.5c0,0.828-0.672,1.5-1.5,1.5S17,21.328,17,20.5c0-3.657,2.542-6.451,5.913-6.5	c1.85,0.015,3.695,0.934,4.89,2.563C29.172,18.428,29.123,20.154,28.842,21.273z" fill="#1E1F21"/>
</svg>