<svg xmlns="http://www.w3.org/2000/svg" viewBox="0 0 48 48" width="48px" height="48px">
    <path fill="#17A2B8"
            d="M37.5 6h-27C7.467 6 5 8.468 5 11.5v3C5 15.328 5.671 16 6.5 16h35c.829 0 1.5-.672 1.5-1.5v-3C43 8.468 40.533 6 37.5 6zM25.5 19h-19C5.671 19 5 19.672 5 20.5v16c0 3.032 2.467 5.5 5.5 5.5h15c.829 0 1.5-.672 1.5-1.5v-20C27 19.672 26.329 19 25.5 19zM41.5 19h-10c-.829 0-1.5.672-1.5 1.5v7c0 .828.671 1.5 1.5 1.5h10c.829 0 1.5-.672 1.5-1.5v-7C43 19.672 42.329 19 41.5 19zM41.5 32h-10c-.829 0-1.5.672-1.5 1.5v7c0 .828.671 1.5 1.5 1.5h6c3.033 0 5.5-2.468 5.5-5.5v-3C43 32.672 42.329 32 41.5 32z"/>
</svg>