<svg xmlns="http://www.w3.org/2000/svg" viewBox="0 0 48 48" width="48px" height="48px">
    <path
            d="M 21.5 3 C 11.299 3 3 11.523 3 22 C 3 27.271 5.1682187 32.350547 8.9492188 35.935547 C 10.271219 37.189547 11 38.80075 11 40.46875 L 11 43.5 C 11 44.328 11.672 45 12.5 45 L 29.5 45 C 30.328 45 31 44.328 31 43.5 L 31 42.941406 C 31 42.725406 31.137797 42.535797 31.341797 42.466797 L 36.921875 40.605469 C 38.762875 39.992469 40 38.277891 40 36.337891 L 40 31.164062 L 42.992188 30.117188 C 43.910187 29.795188 44.617719 29.044375 44.886719 28.109375 C 45.155719 27.174375 44.952703 26.164297 44.345703 25.404297 L 39.832031 19.763672 C 38.739031 10.175672 30.936 3 21.5 3 z M 22 13 C 22.844 13 23.662312 13.107641 24.445312 13.306641 C 24.836312 13.405641 25.116063 13.751344 25.164062 14.152344 L 25.259766 14.953125 C 25.315766 15.422125 25.590047 15.836266 25.998047 16.072266 C 26.406047 16.308266 26.903891 16.338344 27.337891 16.152344 L 28.070312 15.839844 C 28.441312 15.681844 28.880109 15.750062 29.162109 16.039062 C 30.300109 17.209063 31.158188 18.653578 31.617188 20.267578 C 31.727187 20.656578 31.567141 21.073406 31.244141 21.316406 L 30.599609 21.800781 C 30.221609 22.083781 30 22.528 30 23 C 30 23.472 30.221609 23.916219 30.599609 24.199219 L 31.244141 24.683594 C 31.567141 24.925594 31.728187 25.343422 31.617188 25.732422 C 31.158188 27.346422 30.303062 28.790937 29.164062 29.960938 C 28.883063 30.249938 28.441312 30.319156 28.070312 30.160156 L 27.339844 29.847656 C 26.905844 29.661656 26.408 29.692734 26 29.927734 C 25.592 30.162734 25.317719 30.579828 25.261719 31.048828 L 25.164062 31.849609 C 25.116063 32.250609 24.836312 32.596313 24.445312 32.695312 C 23.661312 32.893313 22.844 33 22 33 C 21.156 33 20.337688 32.892359 19.554688 32.693359 C 19.163688 32.594359 18.883938 32.248656 18.835938 31.847656 L 18.740234 31.046875 C 18.684234 30.577875 18.409953 30.163734 18.001953 29.927734 C 17.593953 29.691734 17.096109 29.661656 16.662109 29.847656 L 15.929688 30.160156 C 15.558687 30.319156 15.119891 30.249938 14.837891 29.960938 C 13.699891 28.790938 12.841812 27.346422 12.382812 25.732422 C 12.272813 25.343422 12.432859 24.926594 12.755859 24.683594 L 13.400391 24.199219 C 13.778391 23.916219 14 23.471 14 23 C 14 22.529 13.778391 22.083781 13.400391 21.800781 L 12.755859 21.316406 C 12.432859 21.074406 12.271812 20.656578 12.382812 20.267578 C 12.841812 18.653578 13.696937 17.209063 14.835938 16.039062 C 15.116938 15.750063 15.558688 15.680844 15.929688 15.839844 L 16.660156 16.152344 C 17.094156 16.338344 17.592 16.307266 18 16.072266 C 18.408 15.837266 18.682281 15.420172 18.738281 14.951172 L 18.835938 14.150391 C 18.883937 13.750391 19.163687 13.403687 19.554688 13.304688 C 20.338687 13.106687 21.156 13 22 13 z M 22 20 A 3 3 0 0 0 22 26 A 3 3 0 0 0 22 20 z" fill="#1E1F21"/>
</svg>