<svg xmlns="http://www.w3.org/2000/svg" viewBox="0 0 48 48" width="48px" height="48px">
    <path
            d="M 17.5 4 A 1.5 1.5 0 0 0 17.5 7 A 1.5 1.5 0 0 0 17.5 4 z M 35.5 4 A 1.5 1.5 0 0 0 35.5 7 A 1.5 1.5 0 0 0 35.5 4 z M 26.431641 4.0078125 C 22.862532 4.0091025 19.933594 6.9300152 19.933594 10.501953 C 19.933594 12.354337 20.71893 14.042883 21.970703 15.224609 C 21.960903 15.214609 21.967109 15.214577 21.974609 15.248047 L 22.958984 19.878906 L 22.960938 19.886719 C 23.233595 21.113684 24.337974 22.001953 25.595703 22.001953 L 26.433594 22.001953 L 27.269531 22.001953 C 28.527261 22.001953 29.633591 21.113684 29.90625 19.886719 L 29.90625 19.878906 L 30.894531 15.232422 C 30.894907 15.231492 30.902484 15.216926 30.896484 15.222656 L 30.894531 15.222656 C 32.14457 14.041344 32.933594 12.355036 32.933594 10.501953 C 32.933594 6.9300152 30.002703 4.0091052 26.433594 4.0078125 L 26.431641 4.0078125 z M 26.431641 7.0078125 L 26.433594 7.0078125 C 28.385538 7.0095725 29.933594 8.5525596 29.933594 10.501953 C 29.933594 11.510871 29.511946 12.402281 28.833984 13.042969 C 28.372246 13.47986 28.090827 14.031526 27.964844 14.59375 L 27.962891 14.601562 L 27.453125 17 L 25.414062 17 L 24.904297 14.601562 L 24.902344 14.59375 C 24.776427 14.029942 24.49127 13.478234 24.03125 13.042969 C 23.353024 12.402695 22.933594 11.511569 22.933594 10.501953 C 22.933594 8.5525596 24.479697 7.0095763 26.431641 7.0078125 z M 15.5 9 A 1.5 1.5 0 0 0 15.5 12 A 1.5 1.5 0 0 0 15.5 9 z M 37.5 9 A 1.5 1.5 0 0 0 37.5 12 A 1.5 1.5 0 0 0 37.5 9 z M 17.5 14 A 1.5 1.5 0 0 0 17.5 17 A 1.5 1.5 0 0 0 17.5 14 z M 35.5 14 A 1.5 1.5 0 0 0 35.5 17 A 1.5 1.5 0 0 0 35.5 14 z M 43.367188 21.005859 C 42.341187 21.005859 41.214313 21.679875 38.820312 22.921875 C 36.837313 23.951875 35.004844 24.930531 33.839844 25.644531 C 33.940844 26.082531 34 26.537859 34 27.005859 C 34 30.314859 31.308 33.005859 28 33.005859 L 20.5 33.005859 C 19.672 33.005859 19 32.334859 19 31.505859 C 19 30.676859 19.672 30.005859 20.5 30.005859 L 28 30.005859 C 29.654 30.005859 31 28.659859 31 27.005859 C 31 26.108859 30.596703 25.310766 29.970703 24.759766 C 29.259703 24.289766 28.415 24.005859 27.5 24.005859 L 23.107422 24.005859 L 22.5 24.005859 C 22.471 24.005859 22.443062 23.998094 22.414062 23.996094 C 19.778063 23.955094 18.513391 23.6825 17.400391 23.4375 C 16.388391 23.2145 15.431172 23.005859 13.826172 23.005859 C 6.4941719 23.005859 2.3087656 32.005672 2.1347656 32.388672 C 1.9087656 32.884672 1.9699687 33.462391 2.2929688 33.900391 L 9.2929688 43.394531 C 9.5779688 43.781531 10.026094 44 10.496094 44 C 10.591094 44 10.68625 43.990656 10.78125 43.972656 C 11.34725 43.864656 11.804172 43.437859 11.951172 42.880859 C 12.030172 42.585859 12.795 40.005859 15.5 40.005859 C 17.452 40.005859 19.470828 40.257 21.423828 40.5 C 23.412828 40.749 25.471 41.005859 27.5 41.005859 C 30.263 41.005859 32.252 38.886859 38 33.005859 C 45.302 25.534859 46 24.881391 46 23.400391 C 46 22.118391 44.875188 21.005859 43.367188 21.005859 z" fill="#1E1F21"/>
</svg>