<svg xmlns="http://www.w3.org/2000/svg" viewBox="0 0 48 48" width="48px" height="48px">
    <path
            d="M 24 4 C 18.626866 4 15.490437 5.4836918 13.779297 6.765625 C 8.0699231 6.4791758 5.8007812 6.03125 5.8007812 6.03125 A 1.50015 1.50015 0 0 0 5.5019531 6 A 1.50015 1.50015 0 0 0 4 7.5 L 4 12.5 A 1.50015 1.50015 0 0 0 5.2246094 13.974609 C 5.2246094 13.974609 9.6369213 14.734615 16.669922 15.740234 C 13.38991 15.823637 7.8196793 16.530342 6.8535156 16.841797 C 5.1465156 17.391797 4 18.933687 4 20.679688 L 4 21.761719 L 4 22.710938 L 4 27.373047 C 4 27.409047 4.0039062 27.444469 4.0039062 27.480469 C 4.0039062 27.495469 4 27.508437 4 27.523438 L 4 33.373047 C 4 37.313047 6.6494063 40.720203 10.441406 41.658203 C 14.045406 42.548203 18.606 43 24 43 C 29.394 43 33.954594 42.54725 37.558594 41.65625 C 41.350594 40.71925 44 37.313047 44 33.373047 L 44 27.523438 C 44 27.508437 43.996094 27.495469 43.996094 27.480469 C 43.996094 27.444469 44 27.409047 44 27.373047 L 44 22.710938 L 44 21.761719 L 44 20.679688 C 44 18.933688 42.853484 17.391797 41.146484 16.841797 C 40.179697 16.530403 34.609258 15.824168 31.330078 15.740234 C 38.36336 14.734596 42.777344 13.974609 42.777344 13.974609 A 1.50015 1.50015 0 0 0 44.001953 12.5 L 44.001953 7.5 A 1.50015 1.50015 0 0 0 42.501953 6 C 42.501953 6 42.205125 6.030098 42.199219 6.03125 C 42.193319 6.0324 42.183619 6.0341794 42.167969 6.0371094 C 42.136669 6.0429594 42.084209 6.0520941 42.011719 6.0644531 C 41.866741 6.0891691 41.637705 6.1250471 41.316406 6.1699219 C 40.67381 6.2596712 39.663897 6.382963 38.226562 6.5058594 C 37.162296 6.5968574 35.77563 6.6847054 34.21875 6.7636719 C 32.507092 5.4821345 29.370709 4 24 4 z M 7 9.1855469 C 8.8240867 9.4561678 13.202068 10 24 10 C 30.841738 10 35.509341 9.7483478 38.482422 9.4941406 C 39.635577 9.3955425 40.330304 9.3058039 41.001953 9.2207031 L 41.001953 11.212891 C 40.287097 11.343272 37.243996 11.91733 29.296875 13.013672 A 1.50015 1.50015 0 0 0 28.046875 14.132812 L 26.316406 21 L 21.683594 21 L 19.955078 14.132812 A 1.50015 1.50015 0 0 0 18.705078 13.013672 C 10.759129 11.917492 7.7157659 11.343433 7 11.212891 L 7 9.1855469 z M 7 26.625 C 9.7710849 27.764444 14.855756 29 24 29 C 33.144244 29 38.228915 27.763642 41 26.625 L 41 29.373047 C 41 31.931047 39.288891 34.140094 36.837891 34.746094 C 33.469891 35.578094 29.15 36 24 36 C 18.85 36 14.530109 35.577141 11.162109 34.744141 C 8.7111094 34.138141 7 31.930047 7 29.373047 L 7 26.625 z M 21.5 31 A 1.50015 1.50015 0 1 0 21.5 34 L 25.5 34 A 1.50015 1.50015 0 1 0 25.5 31 L 21.5 31 z" fill="#1E1F21"/>
</svg>