<svg xmlns="http://www.w3.org/2000/svg" viewBox="0 0 48 48" width="48px" height="48px">
    <path fill="#343A40"
            d="M 10 6 A 4 4 0 0 0 6 10 L 6 38 A 4 4 0 0 0 10 42 L 17.050781 42 L 16.025391 40.974609 A 3.5 3.5 0 0 1 16.025391 36.023438 L 36.025391 16.023438 A 3.5 3.5 0 0 1 40.974609 16.023438 L 42 17.050781 L 42 10 A 4 4 0 0 0 38 6 L 10 6 z M 11.958984 10 A 1 1 0 0 1 13 11 A 1 1 0 0 1 12 12 A 1 1 0 0 1 11.958984 10 z M 16 10 A 1 1 0 1 1 15 11 A 1 1 0 0 1 16 10 z M 20 10 A 1 1 0 1 1 19 11 A 1 1 0 0 1 20 10 z M 24 10 A 1 1 0 1 1 23 11 A 1 1 0 0 1 24 10 z M 28 10 A 1 1 0 1 1 27 11 A 1 1 0 0 1 28 10 z M 32 10 A 1 1 0 1 1 31 11 A 1 1 0 0 1 32 10 z M 36 10 A 1 1 0 1 1 35 11 A 1 1 0 0 1 36 10 z M 11.958984 14 A 1 1 0 0 1 13 15 A 1 1 0 0 1 12 16 A 1 1 0 0 1 11.958984 14 z M 20 14 A 1 1 0 1 1 19 15 A 1 1 0 0 1 20 14 z M 28 14 A 1 1 0 1 1 27 15 A 1 1 0 0 1 28 14 z M 38.521484 17 A 1.5 1.5 0 0 0 37.439453 17.439453 L 32.619141 22.259766 A 1.50015 1.50015 0 0 0 32.265625 22.613281 L 27.619141 27.259766 A 1.50015 1.50015 0 0 0 27.265625 27.613281 L 22.619141 32.259766 A 1.50015 1.50015 0 0 0 22.265625 32.613281 L 17.439453 37.439453 A 1.5 1.5 0 0 0 17.439453 39.560547 L 23.439453 45.560547 A 1.5 1.5 0 0 0 24.5 46 A 1.5 1.5 0 0 0 25.560547 45.560547 L 45.560547 25.560547 A 1.5 1.5 0 0 0 45.560547 23.439453 L 39.560547 17.439453 A 1.5 1.5 0 0 0 38.521484 17 z M 11.958984 18 A 1 1 0 0 1 13 19 A 1 1 0 0 1 12 20 A 1 1 0 0 1 11.958984 18 z M 16 18 A 1 1 0 1 1 15 19 A 1 1 0 0 1 16 18 z M 20 18 A 1 1 0 1 1 19 19 A 1 1 0 0 1 20 18 z M 24 18 A 1 1 0 1 1 23 19 A 1 1 0 0 1 24 18 z M 28 18 A 1 1 0 1 1 27 19 A 1 1 0 0 1 28 18 z M 38.5 20.621094 L 42.378906 24.5 L 24.5 42.378906 L 20.621094 38.5 L 23.5 35.621094 L 24.939453 37.060547 A 1.50015 1.50015 0 1 0 27.060547 34.939453 L 25.621094 33.5 L 28.5 30.621094 L 29.939453 32.060547 A 1.50015 1.50015 0 1 0 32.060547 29.939453 L 30.621094 28.5 L 33.5 25.621094 L 34.939453 27.060547 A 1.50015 1.50015 0 1 0 37.060547 24.939453 L 35.621094 23.5 L 38.5 20.621094 z M 11.958984 22 A 1 1 0 0 1 13 23 A 1 1 0 0 1 12 24 A 1 1 0 0 1 11.958984 22 z M 20 22 A 1 1 0 1 1 19 23 A 1 1 0 0 1 20 22 z M 11.958984 26 A 1 1 0 0 1 13 27 A 1 1 0 0 1 12 28 A 1 1 0 0 1 11.958984 26 z M 16 26 A 1 1 0 1 1 15 27 A 1 1 0 0 1 16 26 z M 20 26 A 1 1 0 1 1 19 27 A 1 1 0 0 1 20 26 z M 11.958984 30 A 1 1 0 0 1 13 31 A 1 1 0 0 1 12 32 A 1 1 0 0 1 11.958984 30 z M 42 31.949219 L 31.949219 42 L 38 42 A 4 4 0 0 0 42 38 L 42 31.949219 z M 11.958984 34 A 1 1 0 0 1 13 35 A 1 1 0 0 1 12 36 A 1 1 0 0 1 11.958984 34 z"/>
</svg>